<?xml version="1.0" encoding="utf-8"?>
<!-- Generator: Adobe Illustrator 19.2.0, SVG Export Plug-In . SVG Version: 6.00 Build 0)  -->
<svg version="1.1" id="Layer_1" xmlns="http://www.w3.org/2000/svg" xmlns:xlink="http://www.w3.org/1999/xlink" x="0px" y="0px"
	 viewBox="0 0 300 150" style="enable-background:new 0 0 300 150;" xml:space="preserve">
<style type="text/css">
	.st0{fill:#4987CE;}
</style>
<path class="st0" d="M149.9,142.7c-0.7,0-1.3,0-2-0.1l13.8-38h19c3.3,0,7-2.6,8.2-5.7l15-41.2c2.5-6.7-1.4-12.3-8.6-12.3H169
	l-22.2,60.8l0,0l-12.6,34.5c-29.8-7.1-51.9-33.9-51.9-65.8c0-31,20.9-57.2,49.4-65.2l-13,35.6l0,0l-21.5,59.2h14.3l18.3-50.3h10.8
	l-18.3,50.3h14.3l17.1-46.9c2.5-6.7-1.4-12.3-8.6-12.3h-12.1l13.8-38c1-0.1,2-0.1,3-0.1c37.4,0,67.6,30.3,67.6,67.6
	C217.5,112.4,187.3,142.7,149.9,142.7z M190.9,54.4h-10.8L165,95.8h10.8L190.9,54.4z"/>
</svg>
