<?xml version="1.0" encoding="utf-8"?>
<!-- Generator: Adobe Illustrator 19.2.0, SVG Export Plug-In . SVG Version: 6.00 Build 0)  -->
<svg version="1.1" id="Layer_1" xmlns="http://www.w3.org/2000/svg" xmlns:xlink="http://www.w3.org/1999/xlink" x="0px" y="0px"
	 viewBox="0 0 580 325" style="enable-background:new 0 0 580 325;" xml:space="preserve">
<style type="text/css">
	.st0{fill:#4987CE;}
</style>
<path class="st0" d="M290,280.9c-1.2,0-2.3,0-3.5-0.1l24.2-66.5H344c5.8,0,12.3-4.5,14.3-10l26.3-72.1c4.3-11.8-2.5-21.5-15-21.5
	h-46.2l-38.8,106.5h0l-22,60.4c-52.1-12.4-90.9-59.3-90.9-115.2c0-54.3,36.6-100.1,86.5-114.1l-22.7,62.3h0l-37.7,103.6l25.1,0
	l32.1-88h18.9l-32.1,88l25.1,0l29.9-82.1c4.3-11.8-2.5-21.5-15-21.5h-21.1l24.2-66.6c1.8-0.1,3.5-0.1,5.3-0.1
	c65.4,0,118.4,53,118.4,118.4C408.4,227.9,355.4,280.9,290,280.9z M361.7,126.3h-18.9l-26.4,72.5h18.9L361.7,126.3z"/>
</svg>
