<?xml version="1.0" encoding="utf-8"?>
<!-- Generator: Adobe Illustrator 19.0.0, SVG Export Plug-In . SVG Version: 6.00 Build 0)  -->
<svg version="1.1" id="layer" xmlns="http://www.w3.org/2000/svg" xmlns:xlink="http://www.w3.org/1999/xlink" x="0px" y="0px"
	 viewBox="-153 -46 652 652" style="enable-background:new -153 -46 652 652;" xml:space="preserve">
<style type="text/css">
	.st0{fill:#76787A;}
	.st1{fill:#7EC142;}
</style>
<path class="st0" d="M-99.4,234.1v5H-125v17.8h19v5h-19v25.3h-5.9v-53.2H-99.4z M-68.7,279.1c-2.5,4.3-6,8.9-14.7,8.9
	c-8.5,0-16.6-5.9-16.6-19.9c0-12.4,6.2-19.9,15.6-19.9c8,0,14.6,5.2,14.6,17.4v3.5h-24.9c0,8.4,5,14.3,11.3,14.3
	c4.7,0,8.4-2.5,10.6-6.5L-68.7,279.1z M-75.2,264.6c0-7.1-3.4-11.8-9.1-11.8c-6.4,0-9.9,4.7-10.3,11.8H-75.2z M-29.7,234.1v44.8
	c0,2.8-0.2,5.6,0.3,8.4h-4.9l-0.7-3.8c-1.8,2.4-5.5,4.5-10.1,4.5c-6.8,0-15.7-4.6-15.7-19.9c0-14.9,8.9-19.9,15.4-19.9
	c3.6,0,7.1,1.8,10.1,4.3l0.3,0.1v-18.6H-29.7z M-35,258.1c-2.9-3.2-6.5-5.3-9.6-5.3c-6.2,0-10.8,4-10.8,15.6c0,9.7,4.2,15,10.8,15
	c3.4,0,5.9-1.5,9.6-5.2V258.1z M11.5,279.1c-2.5,4.3-6,8.9-14.7,8.9c-8.5,0-16.6-5.9-16.6-19.9c0-12.4,6.2-19.9,15.6-19.9
	c8,0,14.6,5.2,14.6,17.4v3.5h-24.9c0,8.4,5,14.3,11.3,14.3c4.7,0,8.4-2.5,10.6-6.5L11.5,279.1z M5.1,264.6c0-7.1-3.4-11.8-9.1-11.8
	c-6.4,0-9.9,4.7-10.3,11.8H5.1z M19.6,249h5.3v7.6h0.1c2.9-5.2,6.1-8.2,12.4-8.2v5.3c-6.6,0.1-10.1,4.5-12.6,12.4v21.2h-5.3V249z
	 M43.6,256.3c2.4-4.4,7.1-8.1,14.4-8.1c6.5,0,13.3,3.1,13.3,11.5V279c0,4.2,0.4,6.3,0.9,8.2h-5.4l-0.6-5.3c-2.7,2.9-6.9,6-12.7,6
	c-5.9,0-10.9-3.5-10.9-10.5c0-8.4,6.4-12.6,23.4-15.6v-2.1c0-5.1-3.3-7-7.9-7c-5.9,0-8.8,3.4-9.8,6L43.6,256.3z M66,266.6
	c-12.1,2.1-18.1,5.7-18.1,11c0,3.5,3.4,5.9,6.3,5.9c3.8,0,8.7-2.8,11.8-6.3V266.6z M89.6,287.3h-5.3v-53.2h5.3V287.3z M132.6,248.3
	c-1.5-4.1-4.7-6.9-9.5-6.9c-4.4,0-7.6,1.8-7.6,5.9c0,9.1,27.4,7.2,27.4,24.4c0,10.9-6.9,16.3-18.6,16.3c-8.7,0-16.9-4.9-19.9-12.6
	l8.4-3.7c2.4,5,5.6,8.3,11.6,8.3c5.1,0,9-1.9,9-7.1c0-10.5-27.4-8.4-27.4-24.7c0-9.5,8-14.9,17.2-14.9c8.5,0,15.6,4.3,18.8,12
	L132.6,248.3z M151.6,249v-12.7h9.1V249h7.5v7.4h-7.5V278c0,2.1,1,2.7,3.3,2.7c1.4,0,2.9-0.4,4.2-0.7v7.5c-2.5,0.3-4.7,0.6-7.2,0.6
	c-6.8,0-9.4-3.4-9.4-8.8v-22.8h-5.3V249H151.6z M207.2,249v38.3h-8.4v-4.1c-3.4,2.4-7.3,4.9-11.8,4.9c-7.7,0-11.3-5-11.3-12.8V249
	h9.1v24.9c0,5.2,1.6,6.8,4.7,6.8c4,0,7-2.3,8.5-4.1V249H207.2z M248.4,287.3h-7.7l-0.4-4.1c-3.2,3.2-6.3,4.9-10.4,4.9
	c-10.2,0-15.3-9-15.3-20.9c0-9.4,5.5-18.8,15.3-18.8c3.1,0,7.4,1.8,9.3,4.3h0.1v-18.4h9.1V287.3z M239.3,258.9
	c-1.8-1.7-4.1-3.2-7.1-3.2c-5.4,0-8.5,4.4-8.5,12.5c0,8.1,3.1,12.5,8.5,12.5c3.9,0,5.2-1.9,7.1-3.4V258.9z M264.9,269.6
	c0.1,8,3.7,11,8,11c4.3,0,6.3-1.9,8.5-4.6l6.6,4.1c-3.5,5.5-8.7,7.8-16.1,7.8c-9.9,0-16.2-7.7-16.2-19.9c0-12.1,6.3-19.9,16.6-19.9
	c10-0.1,15.6,8.4,15.6,17.6v3.8H264.9z M279.7,263.4c-0.1-5.3-2.9-8.4-7.4-8.4c-4.4,0-7.2,3.1-7.4,8.4H279.7z M296.1,287.3V249h8.4
	v4.1c3.4-2.4,7.3-4.9,11.8-4.9c7.7,0,11.3,5,11.3,12.8v26.2h-9.1v-24.9c0-5.2-1.6-6.8-4.7-6.8c-4,0-7,2.3-8.5,4v27.6H296.1z
	 M339.4,249v-12.7h9.1V249h7.5v7.4h-7.5V278c0,2.1,1,2.7,3.3,2.7c1.4,0,2.9-0.4,4.2-0.7v7.5c-2.5,0.3-4.7,0.6-7.2,0.6
	c-6.8,0-9.4-3.4-9.4-8.8v-22.8h-5.3V249H339.4z"/>
<path class="st1" d="M382.2,234h12.7l15.1,53.2h-10.1l-2.9-11.5h-16.8l-3.2,11.5h-10.1L382.2,234z M382.4,267.4h12.4l-6-23.1h-0.1
	L382.4,267.4z M416.6,233.4h9.1v8.5h-9.1V233.4z M425.7,287.3h-9.1V249h9.1V287.3z M468,287.3h-7.7l-0.4-4.1
	c-3.2,3.2-6.3,4.9-10.4,4.9c-10.2,0-15.3-9-15.3-20.9c0-9.4,5.4-18.8,15.3-18.8c3.1,0,7.4,1.8,9.3,4.3h0.1v-18.4h9.1V287.3z
	 M458.9,258.9c-1.8-1.7-4.1-3.2-7.1-3.2c-5.4,0-8.5,4.4-8.5,12.5c0,8.1,3.1,12.5,8.5,12.5c3.9,0,5.2-1.9,7.1-3.4V258.9z"/>
<path class="st0" d="M-132,315.5l7.2-13.6h2.2l1.2,13.6h-1.6l-0.3-4.3h-4.9l-2.2,4.3H-132z M-127.5,309.9h4.1l-0.4-7h-0.2
	L-127.5,309.9z M-111.4,305.7l-0.3,1.3h0c1-0.9,2.1-1.5,3.2-1.5c1.4,0,2.7,0.8,2.2,2.9l-1.6,7.1h-1.4l1.6-7.1
	c0.3-1.3-0.2-1.7-1.2-1.7c-1,0-2.4,0.8-3.2,1.5l-1.6,7.4h-1.4l2.2-9.8H-111.4z M-86.3,301.7c3.3,0,5.3,2.5,5.3,7c0,4.6-2,7-5.3,7
	c-3.3,0-5.3-2.5-5.3-7C-91.7,304.1-89.7,301.7-86.3,301.7 M-86.3,314.4c2.4,0,3.8-1.9,3.8-5.7c0-3.9-1.4-5.7-3.8-5.7
	c-2.4,0-3.8,1.9-3.8,5.7C-90.2,312.5-88.7,314.4-86.3,314.4 M-66.2,301.9v1.3h-6.6v4.6h4.9v1.3h-4.9v6.5h-1.5v-13.6H-66.2z
	 M-51.8,301.9v1.3h-6.6v4.6h4.9v1.3h-4.9v6.5h-1.5v-13.6H-51.8z M-43.5,315.5H-45v-13.6h1.5V315.5z M-26.1,311.4
	c-0.6,2.5-2,4.3-4.8,4.3c-3.1,0-5.2-2.2-5.2-7c0-4.4,1.9-7,5.2-7c2.5,0,4,1.5,4.6,4l-1.4,0.4c-0.5-1.9-1.4-3.1-3.4-3.1
	c-2,0-3.5,1.8-3.5,5.7c0,4,1.5,5.7,3.8,5.7c2.1,0,2.9-1.6,3.3-3.3L-26.1,311.4z M-11.2,301.9v1.3h-6.7v4.6h4.7v1.3h-4.7v5.2h7v1.3
	h-8.6v-13.6H-11.2z M6,315.7c-2.7,0-3.5-2.3-2.9-5.1c0.6-2.8,2.5-5.1,5.1-5.1c2.7,0,3.5,2.3,2.9,5.1C10.5,313.4,8.7,315.7,6,315.7
	 M8,306.6c-1.6,0-3,1.4-3.5,3.9c-0.6,2.5,0.2,3.9,1.8,3.9c1.6,0,3-1.4,3.5-3.9C10.4,308,9.6,306.6,8,306.6 M16.8,315.5l1.9-8.7h-1.7
	l0.2-1.2H19l0.2-1.1c0.5-2.3,1.4-2.9,3-2.9c0.4,0,0.8,0.1,1.2,0.1l-0.3,1.2c-0.3,0-0.6-0.1-0.9-0.1c-0.9,0-1.3,0.3-1.6,1.4l-0.3,1.4
	h2.1l-0.2,1.2h-2.1l-1.9,8.7H16.8z M38.6,305.7l0.7-3.2h1.4l-0.7,3.2h2.3l-0.2,1.2h-2.3l-1.5,7c-0.1,0.4,0.2,0.7,1,0.7
	c0.5,0,0.9,0,1.2-0.1l-0.3,1.1c-0.3,0.1-0.8,0.2-1.6,0.2c-1.5,0-2-0.4-1.7-1.6l1.6-7.2h-1.6l0.2-1.2H38.6z M50.7,301.9l-1.1,5.1h0
	c1-0.9,2.1-1.5,3.2-1.5c1.5,0,2.7,0.8,2.2,2.9l-1.6,7.1h-1.4l1.6-7.1c0.3-1.3-0.2-1.7-1.2-1.7c-1,0-2.4,0.8-3.2,1.5l-1.6,7.4h-1.4
	l3-13.6H50.7z M68.6,313.4c-0.9,1.1-2.1,2.3-4.3,2.3c-2.2,0-3.9-1.5-3.1-5.1c0.7-3.2,2.7-5.1,5.1-5.1c2,0,3.5,1.3,2.8,4.5l-0.2,0.9
	h-6.4c-0.5,2.2,0.5,3.7,2.1,3.7c1.2,0,2.3-0.6,3.1-1.7L68.6,313.4z M67.8,309.7c0.4-1.8-0.2-3-1.7-3c-1.6,0-2.8,1.2-3.3,3H67.8z
	 M85.9,301.9v9.6c0,1.6,1.1,2.9,3.3,2.9c2.1,0,3.3-1.3,3.3-2.9v-9.6h1.5v9.5c0,2.7-2,4.3-4.8,4.3c-2.8,0-4.8-1.6-4.8-4.3v-9.5H85.9z
	 M101.4,315.5h-1.9v-2.1h1.9V315.5z M114.9,305.3c-0.3-1.3-1.4-2.4-3.2-2.4c-1.6,0-2.5,0.8-2.6,2.1c0,3,7.7,2.2,7.7,6.6
	c0,2-1.1,4-4.6,4c-3,0-4.2-1.9-4.9-3.6l1.4-0.5c0.5,1.4,1.6,2.8,3.6,2.8c2,0,3-1.1,3-2.5c0-3.5-7.7-2.5-7.7-6.8c0-2,1.6-3.5,4.1-3.5
	c2.1,0,3.8,1.1,4.5,3.4L114.9,305.3z M124.9,315.5H123v-2.1h1.9V315.5z M138.5,301.9h3.7c3.7,0,6.2,2.3,6.2,6.8c0,4-2.2,6.8-6.2,6.8
	h-3.6V301.9z M140,314.2h2c3.1,0,4.8-1.9,4.8-5.5c0-4-1.9-5.5-4.7-5.5H140V314.2z M163.3,301.9v1.3h-6.7v4.6h4.7v1.3h-4.7v5.2h7v1.3
	h-8.6v-13.6H163.3z M170.4,315.5v-13.6h4.8c2.9,0,4.2,1.7,4.2,3.8c0,2.3-1.6,3.7-5,3.7h-2.4v6.1H170.4z M171.9,308.1h2.6
	c2.5,0,3.3-0.9,3.3-2.5c0-1.6-1-2.5-3-2.5h-2.9V308.1z M183.7,315.5l4.2-13.6h2.2l4.2,13.6h-1.6l-1.3-4.3h-4.9l-1.3,4.3H183.7z
	 M186.9,309.9h4.1l-2-7h-0.2L186.9,309.9z M200.9,315.5v-13.6h4.4c2.9,0,4.6,1.3,4.6,3.6c0,1.9-1.1,3-2.7,3.5l2.9,6.5h-1.6l-2.8-6.2
	h-3.2v6.2H200.9z M202.4,308h2.7c2.1,0,3.2-0.8,3.2-2.5c0-1.8-1.3-2.4-3.2-2.4h-2.7V308z M220.8,303.1v12.4h-1.5v-12.4h-4.1v-1.3
	h9.7v1.3H220.8z M241.5,315.5V303h-0.1l-3.8,12.5h-1.2l-3.8-12.5h-0.1v12.5h-1.4v-13.6h2.3l3.5,11h0l3.4-11h2.4v13.6H241.5z
	 M259,301.9v1.3h-6.7v4.6h4.7v1.3h-4.7v5.2h7v1.3h-8.6v-13.6H259z M266.2,315.5v-13.6h2.2l6,10.5h0.1v-10.5h1.4v13.6h-1.2l-6.9-12.2
	h0v12.2H266.2z M287.7,303.1v12.4h-1.5v-12.4h-4.1v-1.3h9.7v1.3H287.7z M306.6,315.7c-2.7,0-3.5-2.3-2.9-5.1
	c0.6-2.8,2.5-5.1,5.1-5.1s3.5,2.3,2.9,5.1C311.1,313.4,309.3,315.7,306.6,315.7 M308.6,306.6c-1.6,0-3,1.4-3.5,3.9
	c-0.6,2.5,0.2,3.9,1.8,3.9c1.6,0,3-1.4,3.5-3.9C311,308,310.2,306.6,308.6,306.6 M317.4,315.5l1.9-8.7h-1.7l0.2-1.2h1.7l0.2-1.1
	c0.5-2.3,1.4-2.9,3-2.9c0.4,0,0.8,0.1,1.2,0.1l-0.3,1.2c-0.3,0-0.6-0.1-0.9-0.1c-0.9,0-1.3,0.3-1.6,1.4l-0.3,1.4h2.1l-0.2,1.2h-2.1
	l-1.9,8.7H317.4z M346,301.9v1.3h-6.7v4.6h4.7v1.3h-4.7v5.2h7v1.3h-8.6v-13.6H346z M353.1,301.9h3.7c3.7,0,6.2,2.3,6.2,6.8
	c0,4-2.2,6.8-6.2,6.8h-3.6V301.9z M354.6,314.2h2c3.1,0,4.8-1.9,4.8-5.5c0-4-1.9-5.5-4.7-5.5h-2.1V314.2z M371.2,301.9v9.6
	c0,1.6,1.1,2.9,3.3,2.9c2.1,0,3.3-1.3,3.3-2.9v-9.6h1.5v9.5c0,2.7-2,4.3-4.8,4.3c-2.8,0-4.8-1.6-4.8-4.3v-9.5H371.2z M396,311.4
	c-0.6,2.5-2,4.3-4.8,4.3c-3.1,0-5.2-2.2-5.2-7c0-4.4,1.9-7,5.2-7c2.5,0,4,1.5,4.6,4l-1.4,0.4c-0.5-1.9-1.4-3.1-3.4-3.1
	c-2,0-3.5,1.8-3.5,5.7c0,4,1.6,5.7,3.8,5.7c2.1,0,2.9-1.6,3.3-3.3L396,311.4z M401.1,315.5l4.2-13.6h2.3l4.2,13.6h-1.6l-1.3-4.3
	h-4.9l-1.3,4.3H401.1z M404.3,309.9h4.1l-2-7h-0.2L404.3,309.9z M421.4,303.1v12.4h-1.5v-12.4h-4.1v-1.3h9.7v1.3H421.4z
	 M433.7,315.5h-1.5v-13.6h1.5V315.5z M446.2,301.7c3.3,0,5.3,2.5,5.3,7c0,4.6-2,7-5.3,7c-3.3,0-5.3-2.5-5.3-7
	C440.9,304.1,442.9,301.7,446.2,301.7 M446.2,314.4c2.4,0,3.8-1.9,3.8-5.7c0-3.9-1.4-5.7-3.8-5.7c-2.4,0-3.8,1.9-3.8,5.7
	C442.4,312.5,443.8,314.4,446.2,314.4 M458.5,315.5v-13.6h2.2l5.9,10.5h0.1v-10.5h1.4v13.6h-1.2l-6.9-12.2h0v12.2H458.5z"/>
</svg>
